<svg t="1661439264445" class="icon" viewBox="0 0 1024 1024" version="1.1" xmlns="http://www.w3.org/2000/svg" p-id="8402" width="200" height="200"><path d="M486.4 590.848c-11.264 11.264-29.696 11.264-40.96 0L334.848 480.256c-11.264-11.264-11.264-29.696 0-40.96s29.696-11.264 40.96 0L486.4 549.888c11.264 11.264 11.264 29.696 0 40.96z" fill="#FFBB12" p-id="8403"></path><path d="M445.44 591.36c-11.264-11.264-11.264-29.696 0-40.96l228.352-228.352c11.264-11.264 29.696-11.264 40.96 0s11.264 29.696 0 40.96L486.4 591.36c-11.264 11.264-29.696 11.264-40.96 0z" fill="#FFBB12" p-id="8404"></path><path d="M512 955.392c-32.256 0-64-9.216-92.16-27.648l-51.712-33.792c-149.504-98.304-238.592-263.168-238.592-441.856V233.984c0-32.256 13.312-76.288 77.824-99.84 72.704-27.136 183.808-62.976 304.128-62.976s231.424 35.84 304.128 62.976c64.512 24.064 77.824 67.584 77.824 99.84v217.6c0 178.688-89.088 344.064-238.592 441.856l-51.712 33.792c-27.136 18.944-58.88 28.16-91.136 28.16z m0-824.832c-111.104 0-215.552 33.792-284.16 59.392-33.28 12.288-37.888 28.16-37.888 43.008v218.624c0 158.72 79.36 305.664 211.968 392.704l51.712 33.792c35.84 23.552 81.92 23.552 117.248 0l51.712-33.792c132.608-87.04 211.968-233.984 211.968-392.704V232.96c0-14.848-4.608-30.208-37.888-43.008-69.12-25.6-173.568-59.392-284.672-59.392z" fill="#2E77ED" p-id="8405"></path></svg>